<svg width="529" height="272" viewBox="0 0 529 272" fill="none" xmlns="http://www.w3.org/2000/svg">
<g filter="url(#filter0_d)">
<path d="M150.25 187.3V217H12.55V193.375L98.95 89.2H14.35V59.5H146.875V83.125L60.7 187.3H150.25Z" fill="#F74431"/>
<path d="M510.125 58.5V216H480.2L401.675 120.375V216H365.675V58.5H395.825L474.125 154.125V58.5H510.125Z" fill="white"/>
<path d="M179 57H323V85H179V57Z" fill="white"/>
<path d="M207 102L207 216L179 216L179 102L207 102Z" fill="#F74431"/>
<path d="M179 123H323V151H179V123Z" fill="#F74431"/>
<path d="M179 188H323V216H179V188Z" fill="#F74431"/>
</g>
<defs>
<filter id="filter0_d" x="-8" y="-8" width="549" height="296" filterUnits="userSpaceOnUse" color-interpolation-filters="sRGB">
<feFlood flood-opacity="0" result="BackgroundImageFix"/>
<feColorMatrix in="SourceAlpha" type="matrix" values="0 0 0 0 0 0 0 0 0 0 0 0 0 0 0 0 0 0 127 0"/>
<feOffset dy="4"/>
<feGaussianBlur stdDeviation="6"/>
<feColorMatrix type="matrix" values="0 0 0 0 0 0 0 0 0 0 0 0 0 0 0 0 0 0 0.3 0"/>
<feBlend mode="normal" in2="BackgroundImageFix" result="effect1_dropShadow"/>
<feBlend mode="normal" in="SourceGraphic" in2="effect1_dropShadow" result="shape"/>
</filter>
</defs>
</svg>
